<?xml version="1.0" standalone="no"?>
<!DOCTYPE svg PUBLIC "-//W3C//DTD SVG 20010904//EN"
 "http://www.w3.org/TR/2001/REC-SVG-20010904/DTD/svg10.dtd">
<svg version="1.0" xmlns="http://www.w3.org/2000/svg"
 width="500.000000pt" height="500.000000pt" viewBox="0 0 500.000000 500.000000"
 preserveAspectRatio="xMidYMid meet">
<metadata>
Created by potrace 1.11, written by Peter Selinger 2001-2013
</metadata>
<g transform="translate(0.000000,500.000000) scale(0.100000,-0.100000)"
fill="#000000" stroke="none">
<path d="M0 2500 l0 -2500 2500 0 2500 0 0 2500 0 2500 -2500 0 -2500 0 0
-2500z m3826 1656 c1 0 51 -98 111 -216 139 -270 240 -467 308 -595 185 -352
265 -515 265 -541 0 -33 2 -31 -222 -145 -115 -59 -141 -68 -158 -59 -11 6
-40 51 -65 100 -45 89 -45 90 -83 90 -28 0 -46 -9 -77 -36 -22 -20 -70 -60
-107 -90 l-67 -55 25 -36 c31 -47 37 -72 32 -136 -5 -65 -43 -127 -100 -164
-37 -25 -50 -28 -120 -27 -73 1 -78 0 -78 -20 0 -36 -43 -99 -88 -130 -37 -26
-52 -30 -107 -31 -60 0 -65 -2 -102 -38 -57 -58 -106 -80 -194 -85 -61 -4 -85
0 -121 16 l-46 20 -33 -34 c-52 -54 -125 -84 -204 -84 -36 0 -82 7 -102 15
-35 15 -36 15 -74 -19 -88 -80 -243 -51 -287 53 l-16 37 -60 -4 c-99 -6 -165
37 -193 123 -9 28 -12 29 -69 30 -94 1 -172 61 -196 150 l-11 42 -56 0 c-61 0
-120 24 -158 65 -50 53 -67 145 -39 213 l14 34 -133 86 c-109 70 -140 86 -166
83 -31 -3 -34 -7 -69 -102 -20 -55 -44 -104 -53 -110 -13 -8 -43 -2 -130 28
-227 80 -272 100 -275 124 -4 23 20 93 166 492 49 135 145 398 212 585 68 187
128 346 133 353 18 24 44 17 282 -70 61 -23 116 -45 123 -51 17 -13 15 -45 -7
-110 -14 -40 -16 -57 -8 -57 7 0 181 11 387 25 206 14 418 28 470 31 79 4 122
14 261 60 l166 55 174 -70 c96 -38 249 -99 341 -135 l167 -65 50 22 c28 12 51
25 51 30 0 4 -16 39 -35 78 -20 39 -33 78 -30 88 8 25 354 202 380 194 11 -3
20 -6 21 -7z m-1622 -2691 c37 -18 79 -78 97 -141 13 -42 15 -44 51 -44 38 0
38 0 38 -40 0 -39 -1 -40 -35 -40 l-35 0 0 -190 0 -190 -50 0 -50 0 0 190 0
190 -85 0 c-101 0 -109 -12 -46 -67 92 -78 47 -225 -88 -287 -65 -29 -231 -30
-278 -2 -39 24 -58 65 -49 107 5 24 0 38 -19 61 -33 39 -33 88 -1 125 21 25
31 28 100 31 l76 4 0 -42 0 -43 -34 6 c-21 3 -41 0 -52 -8 -29 -21 -1 -45 53
-45 l44 0 -3 -37 c-3 -33 -7 -39 -33 -43 -37 -6 -45 -35 -13 -46 38 -12 126
-6 164 12 50 24 76 65 72 115 -4 52 -29 73 -55 46 -17 -17 -17 -19 11 -43 26
-23 27 -27 16 -54 -14 -34 -34 -37 -73 -12 -41 28 -56 53 -57 95 0 40 34 87
65 87 8 0 15 9 15 20 0 19 -7 20 -175 20 l-175 0 0 40 0 40 311 0 310 0 -7 23
c-10 34 -33 75 -45 83 -6 3 -28 6 -49 6 -30 -1 -39 4 -49 24 -14 32 -14 51 2
57 26 11 100 6 131 -8z m1206 -225 c0 -39 -1 -40 -35 -40 l-35 0 0 -190 0
-190 -50 0 -50 0 0 190 0 190 -60 0 -60 0 0 -190 0 -190 -50 0 -50 0 0 120 0
120 -45 0 c-45 0 -54 -7 -34 -27 6 -6 11 -32 11 -58 1 -39 -4 -51 -31 -78 -28
-29 -37 -32 -89 -31 -95 1 -146 38 -202 148 -37 72 -37 89 -5 104 33 15 65 15
65 1 0 -26 64 -139 87 -154 66 -44 100 21 42 81 l-33 34 17 35 17 35 100 0
100 0 0 25 0 25 -220 0 -220 0 0 40 0 40 415 0 415 0 0 -40z"/>
<path d="M1057 3942 c-22 -59 -70 -190 -107 -292 -38 -102 -95 -261 -129 -355
-33 -93 -92 -255 -130 -360 -38 -104 -69 -191 -67 -192 1 -2 59 -22 128 -46
l125 -43 62 175 c34 97 68 192 76 211 8 19 53 143 101 275 47 132 120 330 160
439 41 109 73 200 72 202 -2 2 -250 94 -252 94 -1 0 -18 -49 -39 -108z"/>
<path d="M3643 3993 c-57 -31 -103 -60 -103 -66 0 -5 37 -80 81 -166 125 -240
267 -513 450 -868 52 -101 99 -183 105 -183 8 0 218 104 232 115 2 2 -15 36
-36 76 -22 41 -83 160 -137 264 -54 105 -132 255 -173 335 -42 80 -122 235
-178 345 -73 142 -108 201 -121 202 -10 1 -64 -23 -120 -54z"/>
<path d="M2413 3827 l-273 -92 -151 -230 c-84 -126 -152 -237 -153 -245 -2
-22 87 -42 159 -35 67 6 163 48 210 90 17 16 60 57 97 93 l67 66 93 -3 c86 -2
97 0 153 28 66 34 85 37 103 19 25 -25 13 -57 -30 -85 -24 -15 -45 -29 -48
-31 -3 -2 2 -7 10 -12 8 -5 125 -88 260 -186 593 -430 743 -535 754 -531 6 3
64 51 129 106 79 67 127 101 143 101 13 0 24 5 24 11 0 10 -185 375 -332 654
-37 71 -68 132 -68 136 0 4 -6 12 -14 18 -12 10 -29 6 -85 -19 l-70 -30 -340
135 c-187 74 -346 135 -353 135 -7 -1 -136 -42 -285 -93z"/>
<path d="M1676 3776 l-299 -21 -84 -230 c-46 -126 -103 -284 -127 -350 -24
-66 -59 -164 -79 -217 l-35 -98 32 0 c25 0 71 -24 179 -94 l146 -94 68 78 c49
58 80 85 114 100 131 56 263 -12 290 -150 8 -44 16 -60 28 -60 77 0 173 -73
195 -149 13 -45 13 -45 53 -43 106 8 193 -76 193 -188 0 -44 3 -50 20 -50 80
0 158 -108 146 -201 -6 -42 -4 -47 16 -53 44 -11 109 -6 146 13 48 25 88 67
70 74 -24 9 -373 269 -381 283 -12 21 1 52 24 59 24 8 34 2 384 -250 131 -94
142 -99 197 -103 45 -3 66 0 99 17 42 22 81 60 73 73 -2 3 -82 61 -177 129
-440 314 -427 303 -427 328 0 27 17 44 42 44 15 0 97 -52 219 -140 500 -359
466 -338 523 -322 46 13 76 52 76 100 0 48 -19 70 -138 151 -51 34 -164 112
-250 171 -86 59 -187 129 -224 154 -57 38 -68 50 -68 74 0 34 25 51 57 38 13
-5 52 -28 86 -52 34 -24 121 -83 192 -132 72 -49 208 -142 303 -207 105 -73
185 -121 205 -125 64 -10 137 53 137 118 0 66 -13 78 -290 279 -149 107 -327
237 -397 288 -71 51 -150 110 -178 129 -27 20 -72 53 -100 73 -55 40 -141 101
-194 137 -24 16 -48 23 -84 23 -48 0 -51 -2 -139 -85 -122 -116 -225 -165
-348 -165 -109 0 -252 54 -258 97 -2 14 54 107 168 280 95 142 176 266 181
276 12 21 15 21 -385 -7z"/>
<path d="M1625 2768 c-26 -13 -175 -180 -197 -221 -24 -43 -23 -77 5 -118 29
-43 81 -62 128 -47 43 14 208 198 227 253 11 34 10 43 -8 80 -11 23 -32 47
-46 53 -30 14 -82 14 -109 0z"/>
<path d="M1787 2469 c-86 -89 -107 -123 -107 -172 0 -31 7 -46 34 -73 29 -29
41 -34 82 -34 48 0 50 1 127 83 82 86 97 110 97 157 0 70 -45 110 -122 110
-40 0 -47 -5 -111 -71z"/>
<path d="M2110 2337 c-14 -12 -56 -57 -93 -100 -59 -68 -67 -83 -67 -118 0
-55 34 -89 89 -89 37 0 45 6 118 86 43 47 83 95 90 107 21 38 15 76 -16 108
-37 36 -85 39 -121 6z"/>
<path d="M2290 2114 c-42 -28 -81 -81 -87 -118 -5 -30 -1 -40 25 -66 42 -42
89 -41 137 1 40 35 65 77 65 108 0 30 -50 80 -85 86 -19 3 -39 -1 -55 -11z"/>
</g>
</svg>
